<svg width="774" height="608" xmlns="http://www.w3.org/2000/svg" xmlns:xlink="http://www.w3.org/1999/xlink" xml:space="preserve" overflow="hidden"><g transform="translate(-1498 -934)"><path d="M1501.5 1037.67C1501.5 982.347 1546.35 937.5 1601.67 937.5L2168.33 937.5C2223.65 937.5 2268.5 982.347 2268.5 1037.67L2268.5 1438.33C2268.5 1493.65 2223.65 1538.5 2168.33 1538.5L1601.67 1538.5C1546.35 1538.5 1501.5 1493.65 1501.5 1438.33Z" stroke="#042433" stroke-width="6.875" stroke-miterlimit="8" fill="#50164A" fill-rule="evenodd"/><text fill="#61CBF4" font-family="Malgun Gothic,Malgun Gothic_MSFontService,sans-serif" font-weight="400" font-size="83" transform="matrix(1 0 0 1 1701.63 1170)">&lt;Debug&gt;</text><text fill="#61CBF4" font-family="Malgun Gothic,Malgun Gothic_MSFontService,sans-serif" font-weight="400" font-size="83" transform="matrix(1 0 0 1 1634.88 1269)">Splash image</text><text fill="#61CBF4" font-family="Malgun Gothic,Malgun Gothic_MSFontService,sans-serif" font-weight="400" font-size="83" transform="matrix(1 0 0 1 1642.6 1368)">(</text><text fill="#61CBF4" font-family="Malgun Gothic,Malgun Gothic_MSFontService,sans-serif" font-weight="400" font-size="83" transform="matrix(1 0 0 1 1667.81 1368)">Dsplash.svg</text><text fill="#61CBF4" font-family="Malgun Gothic,Malgun Gothic_MSFontService,sans-serif" font-weight="400" font-size="83" transform="matrix(1 0 0 1 2100.98 1368)">)</text></g></svg>